# xmcd
#
# Track frame offsets: 
#        150
#        13079
#        26264
#        37441
#        52331
#        66589
#        79703
#        91633
#        105540
#        130469
#
# Disc length: 1955 seconds
#
# Revision: 0
# Processed by: cddbd v1.5.2PL0 Copyright (c) Steve Scherf et al.
# Submitted via: ExactAudioCopy v0.95b4
#
DISCID=8807a10a
DTITLE=Harry Belafonte - Most Famous Hits CD1
DYEAR=1900
DGENRE=Oldies
TTITLE0=Recognition
TTITLE1=Deep As The River
TTITLE2=Close Your Eyes
TTITLE3=Sometimes I Feel Like A Motherless Child
TTITLE4=Farewell To Arms
TTITLE5=Smoke Gets In Your Eyes
TTITLE6=Annabelle Lee
TTITLE7=Simple, Simple, Simple
TTITLE8=La Bamba
TTITLE9=Going Down Jordan
EXTD=
EXTT0=
EXTT1=
EXTT2=
EXTT3=
EXTT4=
EXTT5=
EXTT6=
EXTT7=
EXTT8=
EXTT9=
PLAYORDER=
